<?xml version="1.0" encoding="UTF-8"?><svg id="a" xmlns="http://www.w3.org/2000/svg" xmlns:xlink="http://www.w3.org/1999/xlink" viewBox="0 0 190 190"><defs><clipPath id="c"><rect x="0" y="0" width="16" height="19" style="fill:none;"/></clipPath><pattern id="b" x="0" y="0" width="16" height="19" patternTransform="translate(1178.48 -6830.5) scale(.4)" patternUnits="userSpaceOnUse" viewBox="0 0 16 19"><rect width="16" height="19" style="fill:none;"/><g style="clip-path:url(#c);"><polygon points="16 22.18 10.5 19 16 15.82 21.5 19 16 22.18" style="fill:#95989b;"/><polygon points="0 22.18 -5.5 19 0 15.82 5.5 19 0 22.18" style="fill:#95989b;"/><polygon points="8 12.68 2.5 9.5 8 6.32 13.5 9.5 8 12.68" style="fill:#9aaeba;"/><polygon points="16 3.18 10.5 0 16 -3.18 21.5 0 16 3.18" style="fill:#95989b;"/><polygon points="0 3.18 -5.5 0 0 -3.18 5.5 0 0 3.18" style="fill:#95989b;"/></g></pattern></defs><path d="M140.33,140.83c8.91,5.17,13.36,11.89,13.36,18.65s-4.45,13.5-13.36,18.64c-17.84,10.29-46.73,10.29-64.57,0-5.73-3.31-9.64-7.31-11.68-11.53v-.02c-.55-1.11-.93-2.22-1.21-3.37-.28-1.13-.44-2.28-.46-3.4v-.33c-.03-6.75,4.45-13.5,13.35-18.65,17.84-10.29,46.73-10.29,64.57,0Z" style="fill:url(#b);"/><path d="M99.37,133.02c-2.9.15-5.82.14-8.71-.04-10.06-.6-19.83-3.12-27.54-7.58-5.66-3.25-9.53-7.18-11.59-11.35-1.18-2.36-1.76-4.82-1.76-7.3v-22.48c.11,6.64,4.58,13.24,13.35,18.31,17.84,10.29,46.73,10.29,64.57,0,8.91-5.14,13.36-11.89,13.36-18.62v22.79c0,2.48-.58,4.93-1.76,7.3-2.07,4.17-5.94,8.1-11.6,11.35-7.9,4.57-17.99,7.11-28.32,7.62Z" style="fill:#b3c2cb;"/><path d="M141.05,51.83v22.83c0,1.56-.23,3.1-.7,4.64-.27.88-.62,1.76-1.05,2.63-2.06,4.17-5.92,8.09-11.6,11.35-17.84,10.29-46.73,10.29-64.57,0-5.66-3.26-9.53-7.18-11.59-11.35-.43-.87-.79-1.76-1.06-2.65-.47-1.53-.69-3.08-.69-4.62v-22.51c.02,1.13.18,2.28.46,3.4.28,1.15.67,2.26,1.21,3.37v.02c2.04,4.21,5.94,8.21,11.68,11.53,17.84,10.29,46.73,10.29,64.57,0,8.91-5.14,13.36-11.9,13.36-18.64Z" style="fill:#b3c2cb;"/><path d="M140.34,79.3c.47,1.54.7,3.09.7,4.66,0,6.73-4.45,13.48-13.36,18.62-17.84,10.29-46.73,10.29-64.57,0-8.77-5.07-13.24-11.68-13.35-18.31v-.31c-.02-1.57.21-3.14.69-4.68.27.89.63,1.78,1.06,2.65,2.06,4.17,5.93,8.09,11.59,11.35,17.84,10.29,46.73,10.29,64.57,0,5.69-3.26,9.55-7.18,11.6-11.35.43-.87.78-1.75,1.05-2.63Z" style="fill:#023452;"/><path d="M127.68,33.18c8.91,5.17,13.36,11.9,13.36,18.65s-4.45,13.5-13.36,18.64c-17.84,10.29-46.73,10.29-64.57,0-5.73-3.31-9.64-7.31-11.68-11.53v-.02c-.54-1.11-.93-2.22-1.21-3.37-.28-1.13-.44-2.28-.46-3.4v-.33c-.03-6.75,4.45-13.5,13.35-18.65,17.84-10.29,46.73-10.29,64.57,0Z" style="fill:#fff;"/><path d="M49.77,84.27c.11,6.64,4.58,13.24,13.35,18.31,17.84,10.29,46.73,10.29,64.57,0,8.91-5.14,13.36-11.89,13.36-18.62,0-1.56-.24-3.12-.7-4.66" style="fill:none; stroke:#023452; stroke-linecap:round; stroke-linejoin:round; stroke-width:3px;"/><path d="M50.47,79.28c-.48,1.54-.71,3.1-.69,4.68v22.79c0,2.48.58,4.93,1.76,7.3,2.06,4.17,5.93,8.1,11.59,11.35,7.7,4.46,17.48,6.96,27.54,7.58,2.89.18,5.81.19,8.71.04,10.33-.52,20.41-3.05,28.32-7.62,5.66-3.25,9.53-7.18,11.6-11.35,1.18-2.36,1.76-4.82,1.76-7.3v-22.79" style="fill:none; stroke:#023452; stroke-linecap:round; stroke-linejoin:round; stroke-width:3px;"/><path d="M49.77,52.15c.02,1.13.18,2.28.46,3.4.28,1.15.67,2.26,1.21,3.37v.02c2.04,4.21,5.94,8.21,11.68,11.53,17.84,10.29,46.73,10.29,64.57,0,8.91-5.14,13.36-11.9,13.36-18.64s-4.45-13.48-13.36-18.65c-17.84-10.29-46.73-10.29-64.57,0-8.9,5.14-13.37,11.9-13.35,18.65" style="fill:none; stroke:#023452; stroke-linecap:round; stroke-linejoin:round; stroke-width:3px;"/><path d="M49.77,51.83v22.83c0,1.55.23,3.1.69,4.62.27.89.63,1.78,1.06,2.65,2.06,4.17,5.93,8.09,11.59,11.35,17.84,10.29,46.73,10.29,64.57,0,5.69-3.26,9.55-7.18,11.6-11.35.43-.87.78-1.75,1.05-2.63.48-1.54.7-3.09.7-4.64v-22.83" style="fill:none; stroke:#023452; stroke-linecap:round; stroke-linejoin:round; stroke-width:3px;"/><path d="M58.22,79.25c1.45,1.16,3.08,2.28,4.9,3.32,1.12.65,2.29,1.26,3.49,1.82" style="fill:none; stroke:#023452; stroke-linecap:round; stroke-linejoin:round; stroke-width:3px;"/><path d="M58.22,110.3c1.45,1.17,3.08,2.28,4.9,3.32,1.12.65,2.29,1.26,3.48,1.82" style="fill:none; stroke:#023452; stroke-linecap:round; stroke-linejoin:round; stroke-width:3px;"/><path d="M99.37,165.07c-2.9.15-5.82.14-8.71-.04-10.06-.6-19.83-3.12-27.54-7.58-5.66-3.25-9.53-7.18-11.59-11.35-1.18-2.36-1.76-4.82-1.76-7.3v-22.48c.11,6.64,4.58,13.24,13.35,18.31,17.84,10.29,46.73,10.29,64.57,0,8.91-5.14,13.36-11.89,13.36-18.62v22.79c0,2.48-.58,4.93-1.76,7.3-2.07,4.17-5.94,8.1-11.6,11.35-7.9,4.57-17.99,7.11-28.32,7.62Z" style="fill:#b3c2cb;"/><path d="M140.34,111.36c.47,1.54.7,3.09.7,4.66,0,6.73-4.45,13.48-13.36,18.62-17.84,10.29-46.73,10.29-64.57,0-8.77-5.07-13.24-11.68-13.35-18.31v-.31c-.02-1.57.21-3.14.69-4.68.27.89.63,1.78,1.06,2.65,2.06,4.17,5.93,8.09,11.59,11.35,17.84,10.29,46.73,10.29,64.57,0,5.69-3.26,9.55-7.18,11.6-11.35.43-.87.78-1.75,1.05-2.63Z" style="fill:#023452;"/><path d="M49.77,116.33c.11,6.64,4.58,13.24,13.35,18.31,17.84,10.29,46.73,10.29,64.57,0,8.91-5.14,13.36-11.89,13.36-18.62,0-1.56-.24-3.12-.7-4.66" style="fill:none; stroke:#023452; stroke-linecap:round; stroke-linejoin:round; stroke-width:3px;"/><path d="M50.47,111.34c-.48,1.54-.71,3.1-.69,4.68v22.79c0,2.48.58,4.93,1.76,7.3,2.06,4.17,5.93,8.1,11.59,11.35,7.7,4.46,17.48,6.96,27.54,7.58,2.89.18,5.81.19,8.71.04,10.33-.52,20.41-3.05,28.32-7.62,5.66-3.25,9.53-7.18,11.6-11.35,1.18-2.36,1.76-4.82,1.76-7.3v-22.79" style="fill:none; stroke:#023452; stroke-linecap:round; stroke-linejoin:round; stroke-width:3px;"/><path d="M58.22,142.36c1.45,1.17,3.08,2.28,4.9,3.32,1.12.65,2.29,1.26,3.48,1.82" style="fill:none; stroke:#023452; stroke-linecap:round; stroke-linejoin:round; stroke-width:3px;"/></svg>