<?xml version="1.0" encoding="UTF-8"?><svg id="a" xmlns="http://www.w3.org/2000/svg" viewBox="0 0 135 135"><path d="M134.18,99.64c4.72-30.32-11.31-70.44-35.79-89.59C86.87,1.03,75.53-1.73,66.26,1.02h0s-.08.03-.08.03c-1.04.31-2.05.7-3.03,1.15l-12.89,4.89,1.89,4.81c-3.17,4.78-5.48,10.93-6.64,18.37-4.72,30.32,11.31,70.44,35.79,89.59,5.73,4.48,11.41,7.4,16.82,8.89l2.05,5.22,12.9-4.98c1.44-.4,2.83-.94,4.17-1.61l.08-.03h0c8.46-4.26,14.67-13.71,16.85-27.7Z" style="fill:#023452; stroke:#023452; stroke-miterlimit:10;"/><path d="M120.85,104.74c-4.72,30.32-28.39,39.37-52.87,20.22-24.48-19.16-40.51-59.27-35.79-89.59C36.9,5.03,60.57-4.02,85.06,15.14c24.48,19.16,40.51,59.27,35.79,89.59Z" style="fill:#dadee3; stroke:#023452; stroke-miterlimit:10;"/><path d="M111.61,97.51c-3.73,24.01-22.47,31.17-41.86,16-19.38-15.17-32.07-46.92-28.33-70.93,3.73-24.01,22.47-31.17,41.86-16,19.38,15.17,32.07,46.92,28.33,70.93Z" style="fill:#fff; stroke:#3b3d3d; stroke-linecap:round; stroke-linejoin:round;"/><path d="M102.38,90.28c-2.75,17.69-16.56,22.97-30.84,11.79-14.28-11.18-23.63-34.57-20.88-52.26,2.75-17.69,16.56-22.97,30.84-11.79,14.28,11.18,23.63,34.57,20.88,52.26Z" style="fill:#dadee3; stroke:#023452; stroke-miterlimit:10;"/><path d="M93.14,83.06c-1.77,11.37-10.65,14.77-19.83,7.58-9.18-7.18-15.19-22.23-13.42-33.6,1.77-11.37,10.65-14.77,19.83-7.58,9.18,7.18,15.19,22.23,13.42,33.6Z" style="fill:#fff; stroke:#3b3d3d; stroke-linecap:round; stroke-linejoin:round;"/><path d="M83.9,75.83c-.79,5.05-4.73,6.56-8.81,3.37-4.08-3.19-6.75-9.88-5.97-14.93.79-5.05,4.73-6.56,8.81-3.37s6.75,9.88,5.97,14.93Z" style="fill:#f47d20; stroke:#023452; stroke-miterlimit:10;"/><polygon points="26.68 88.38 26.79 88.23 22.38 80.92 3.49 87.57 6.46 95.39 0 106.53 18.89 99.88 26.68 88.38" style="fill:#f47d20; stroke:#023452; stroke-miterlimit:10;"/><polyline points="76.42 71.15 68.59 73.86 61.48 76.33 52.53 79.43 43.26 82.64 26.68 88.38 6.46 95.39" style="fill:none; stroke:#023452; stroke-linecap:round; stroke-linejoin:round;"/></svg>