<?xml version="1.0" encoding="UTF-8"?><svg id="a" xmlns="http://www.w3.org/2000/svg" xmlns:xlink="http://www.w3.org/1999/xlink" viewBox="0 0 135 135"><defs><clipPath id="b"><path d="M65.75,32.99l2.01-1.14-2.01,1.14c1.14.65,2.96.62,4.07-.04,1.11-.66,1.08-1.73-.06-2.36-1.14-.65-2.96-.62-4.07.04-1.11.66-1.08,1.73.06,2.36Z" style="fill:none; stroke:#023452; stroke-miterlimit:10; stroke-width:.75px;"/></clipPath></defs><path d="M51.41,108.1c8.77-5.25,23.21-5.39,32.23-.32,9.03,5.07,9.22,13.42.46,18.67-8.77,5.25-23.21,5.39-32.23.32-9.03-5.07-9.22-13.42-.46-18.67Z" style="fill:#c2ced6; stroke:#023452; stroke-miterlimit:10; stroke-width:.75px;"/><path d="M90.54,117.21c0,3.33-2.13,6.65-6.44,9.24-8.77,5.25-23.21,5.39-32.23.32-4.59-2.57-6.89-5.99-6.91-9.43v4.52c.03,3.44,2.33,6.87,6.92,9.43,9.03,5.07,23.46,4.91,32.23-.32,4.31-2.58,6.46-5.91,6.44-9.24v-4.52h-.01Z" style="fill:#023452; stroke:#023452; stroke-miterlimit:10; stroke-width:.75px;"/><g style="isolation:isolate;"><g style="clip-path:url(#b);"><g style="isolation:isolate;"><path d="M65.75,32.99l2.01-1.14-1.39-1.52c-.24.08-.46.18-.67.29-1.11.66-1.08,1.73.06,2.36h0Z" style="fill:#595048; stroke:#023452; stroke-miterlimit:10; stroke-width:.75px;"/><path d="M66.37,30.34l1.39,1.52,2.79.35c.25-.56,0-1.18-.79-1.61-.93-.52-2.32-.6-3.4-.25h0Z" style="fill:#5b5249; stroke:#023452; stroke-miterlimit:10; stroke-width:.75px;"/><path d="M70.55,32.2l-2.79-.35-2.01,1.14c1.14.65,2.96.62,4.07-.04.37-.21.6-.48.73-.74h0Z" style="fill:#595048; stroke:#023452; stroke-miterlimit:10; stroke-width:.75px;"/></g></g><path d="M65.75,32.99l2.01-1.14-2.01,1.14c1.14.65,2.96.62,4.07-.04,1.11-.66,1.08-1.73-.06-2.36-1.14-.65-2.96-.62-4.07.04-1.11.66-1.08,1.73.06,2.36Z" style="fill:none; stroke:#023452; stroke-miterlimit:10; stroke-width:.75px;"/></g><path d="M64.88,31.8l.13,84.59c0,.44.29.87.87,1.19l-.13-84.59c-.58-.32-.87-.76-.87-1.19h0Z" style="fill:#355d75; stroke:#023452; stroke-miterlimit:10; stroke-width:.75px;"/><path d="M70.76,116.38l-.13-84.59c0,.42-.27.84-.81,1.17-1.11.66-2.93.69-4.07.04l.13,84.59c1.14.65,2.96.62,4.07-.04.55-.32.81-.74.81-1.17Z" style="fill:#023452; stroke:#023452; stroke-miterlimit:10; stroke-width:.75px;"/><path d="M15.15,65.86c-8.92-4.97-9.21-13.18-.66-18.32,8.55-5.15,22.72-5.29,31.63-.32,8.92,4.97,9.21,13.18.66,18.32-8.55,5.15-22.72,5.29-31.63.32Z" style="fill:#fbcba6; stroke:#023452; stroke-miterlimit:10; stroke-width:.75px;"/><path d="M45.77,67.98c8.03-4.83,7.75-12.52-.62-17.2-8.37-4.66-21.65-4.53-29.68.29-8.03,4.83-7.75,12.52.62,17.2,8.37,4.66,21.65,4.53,29.68-.29Z" style="fill:#fde5d2; stroke:#023452; stroke-miterlimit:10; stroke-width:.75px;"/><path d="M9.65,56.48v3c0-3.02,1.94-6.04,5.84-8.38,8.03-4.83,21.31-4.97,29.68-.29,4.31,2.4,6.47,5.6,6.46,8.8v-3c.01-3.2-2.15-6.4-6.44-8.8-8.37-4.66-21.65-4.53-29.68.29-3.89,2.34-5.84,5.36-5.84,8.38h-.01Z" style="fill:#f47d20; stroke:#023452; stroke-miterlimit:10; stroke-width:.75px;"/><path d="M53,60.73v-4.13c0,3.22-2.06,6.44-6.22,8.94v4.13c4.14-2.5,6.21-5.71,6.22-8.94Z" style="fill:#f6974d; stroke:#023452; stroke-miterlimit:10; stroke-width:.75px;"/><path d="M8.26,56.46v4.13c-.03,3.41,2.29,6.82,6.88,9.39,8.92,4.97,23.08,4.83,31.63-.32v-4.13c-8.55,5.15-22.7,5.29-31.62.32-4.59-2.56-6.89-5.98-6.88-9.39h-.01Z" style="fill:#f6974d; stroke:#023452; stroke-miterlimit:10; stroke-width:.75px;"/><path d="M30.62,44.22c.18,0,.32-.14.32-.32V9.02c0-.18-.14-.32-.32-.32s-.32.14-.32.32v34.87c0,.18.14.32.32.32Z" style="fill:#023452; stroke:#023452; stroke-miterlimit:10; stroke-width:.75px;"/><path d="M8.92,56.79c.13,0,.24-.07.29-.18L30.93,9.16c.07-.15,0-.35-.15-.42s-.35,0-.42.15L8.63,56.34c-.07.15,0,.35.15.42.04.01.08.03.13.03h0Z" style="fill:#023452; stroke:#023452; stroke-miterlimit:10; stroke-width:.75px;"/><path d="M52.34,56.79s.08,0,.13-.03c.15-.07.24-.27.15-.42L30.9,8.9c-.07-.15-.27-.22-.42-.15s-.24.27-.15.42l21.72,47.44c.06.11.17.18.29.18Z" style="fill:#023452; stroke:#023452; stroke-miterlimit:10; stroke-width:.75px;"/><path d="M88.89,109.97c-8.92-4.97-9.21-13.18-.66-18.32,8.55-5.15,22.72-5.29,31.63-.32,8.92,4.97,9.21,13.18.66,18.32-8.55,5.15-22.72,5.29-31.63.32Z" style="fill:#fbcba6; stroke:#023452; stroke-miterlimit:10; stroke-width:.75px;"/><path d="M119.51,112.09c8.03-4.83,7.75-12.52-.62-17.2-8.37-4.66-21.65-4.53-29.68.29-8.03,4.83-7.75,12.52.62,17.2,8.37,4.66,21.65,4.53,29.68-.29Z" style="fill:#fde5d2; stroke:#023452; stroke-miterlimit:10; stroke-width:.75px;"/><path d="M83.39,100.59v3c0-3.02,1.94-6.04,5.84-8.38,8.03-4.83,21.31-4.97,29.68-.29,4.31,2.4,6.47,5.6,6.46,8.8v-3c.01-3.2-2.15-6.4-6.44-8.8-8.37-4.66-21.65-4.53-29.68.29-3.89,2.34-5.84,5.36-5.84,8.38h-.01Z" style="fill:#f47d20; stroke:#023452; stroke-miterlimit:10; stroke-width:.75px;"/><path d="M126.74,100.72v4.13c-.01,3.23-2.07,6.44-6.22,8.94v-4.13c4.16-2.5,6.22-5.73,6.22-8.94Z" style="fill:#f6974d; stroke:#023452; stroke-miterlimit:10; stroke-width:.75px;"/><path d="M120.51,109.65v4.13c-8.55,5.15-22.72,5.29-31.63.32-4.59-2.57-6.91-5.98-6.88-9.39v-4.13h0c0,3.41,2.29,6.84,6.88,9.39,8.92,4.97,23.07,4.83,31.62-.32Z" style="fill:#f6974d; stroke:#023452; stroke-miterlimit:10; stroke-width:.75px;"/><path d="M104.36,88.33c.18,0,.32-.14.32-.32v-34.87c0-.18-.14-.32-.32-.32s-.32.14-.32.32v34.87c0,.18.14.32.32.32Z" style="fill:#023452; stroke:#023452; stroke-miterlimit:10; stroke-width:.75px;"/><path d="M82.66,100.9c.13,0,.24-.07.29-.18l21.72-47.44c.07-.15,0-.35-.15-.42s-.35,0-.42.15l-21.72,47.44c-.07.15,0,.35.15.42.04.01.08.03.13.03h0Z" style="fill:#023452; stroke:#023452; stroke-miterlimit:10; stroke-width:.75px;"/><path d="M126.08,100.9s.08,0,.13-.03c.15-.07.24-.27.15-.42l-21.72-47.44c-.07-.15-.27-.22-.42-.15s-.24.27-.15.42l21.72,47.44c.06.11.17.18.29.18Z" style="fill:#023452; stroke:#023452; stroke-miterlimit:10; stroke-width:.75px;"/><path d="M109.35,49.53c0,2.12-1.5,2.98-3.34,1.91-1.84-1.07-3.33-3.64-3.33-5.76s1.5-2.98,3.34-1.91c1.84,1.07,3.33,3.64,3.33,5.76ZM106.01,49.47c.9.52,1.63.1,1.64-.93s-.73-2.3-1.63-2.82-1.63-.1-1.64.93c0,1.04.73,2.3,1.63,2.82h0Z" style="fill:#023452; stroke:#023452; stroke-miterlimit:10; stroke-width:.75px;"/><path d="M106.01,45.72c-.9-.52-1.63-.1-1.64.93,0,1.04.73,2.3,1.63,2.82s1.63.1,1.64-.93c0-1.04-.73-2.3-1.63-2.82Z" style="fill:#fff; stroke:#023452; stroke-miterlimit:10; stroke-width:.75px;"/><path d="M108.37,51.66l.6-.35c.6-.35.97-1.1.97-2.13,0-2.12-1.49-4.69-3.33-5.76l-.6.35c1.84,1.07,3.33,3.64,3.33,5.76,0,1.05-.38,1.8-.97,2.13Z" style="fill:#355d75; stroke:#023452; stroke-miterlimit:10; stroke-width:.75px;"/><path d="M104.26,43.18l-.6.35c.6-.35,1.45-.31,2.37.24l.6-.35c-.93-.53-1.77-.59-2.37-.24Z" style="fill:#355d75; stroke:#023452; stroke-miterlimit:10; stroke-width:.75px;"/><path d="M34.94,6.57c0,2.12-1.5,2.98-3.34,1.91-1.84-1.07-3.33-3.64-3.33-5.76s1.5-2.98,3.34-1.91,3.33,3.64,3.33,5.76ZM31.6,6.51c.9.52,1.63.1,1.64-.93,0-1.04-.73-2.3-1.63-2.82-.9-.52-1.63-.1-1.64.93,0,1.04.73,2.3,1.63,2.82h0Z" style="fill:#023452; stroke:#023452; stroke-miterlimit:10; stroke-width:.75px;"/><path d="M31.6,2.76c-.9-.52-1.63-.1-1.64.93,0,1.04.73,2.3,1.63,2.82.9.52,1.63.1,1.64-.93,0-1.04-.73-2.3-1.63-2.82Z" style="fill:#fff; stroke:#023452; stroke-miterlimit:10; stroke-width:.75px;"/><path d="M33.96,8.7l.6-.35c.6-.35.97-1.1.97-2.13,0-2.12-1.49-4.69-3.33-5.76l-.6.35c1.84,1.07,3.33,3.64,3.33,5.76,0,1.05-.38,1.8-.97,2.13Z" style="fill:#355d75; stroke:#023452; stroke-miterlimit:10; stroke-width:.75px;"/><path d="M29.83.22l-.6.35c.6-.35,1.45-.31,2.37.24l.6-.35c-.93-.53-1.77-.59-2.37-.24Z" style="fill:#355d75; stroke:#023452; stroke-miterlimit:10; stroke-width:.75px;"/><polygon points="71.92 31.95 65.48 28.2 63.59 29.3 70.03 33.05 71.92 31.95" style="fill:#262e4f; stroke:#023452; stroke-miterlimit:10; stroke-width:.75px;"/><polygon points="71.9 24.24 65.45 20.49 65.48 28.2 71.92 31.95 71.9 24.24" style="fill:#262e4f; stroke:#023452; stroke-miterlimit:10; stroke-width:.75px;"/><path d="M71.92,31.95l-.03-7.69.28-1.33.51-.29c.37-.21.67-.04.67.38l.03,8.49c0,.42-.29.95-.67,1.17l-2.98,1.71.28-1.33,1.9-1.1h.01Z" style="fill:#023452; stroke:#023452; stroke-miterlimit:10; stroke-width:.75px;"/><path d="M29.24.57l-1.98,1.15c.6-.35,1.45-.31,2.37.24l1.98-1.15c-.93-.53-1.77-.59-2.37-.24Z" style="fill:#355d75; stroke:#023452; stroke-miterlimit:10; stroke-width:.75px;"/><path d="M29.64,1.95c-1.84-1.07-3.34-.21-3.34,1.91s1.49,4.69,3.33,5.76c1.32.76,2.46.53,3-.42.21-.38.34-.88.34-1.49s-.11-1.24-.32-1.87c-.53-1.59-1.67-3.13-2.99-3.89h-.01Z" style="fill:#c2ced6; stroke:#023452; stroke-miterlimit:10; stroke-width:.75px;"/><path d="M31.98,9.85l1.98-1.15c.25-.15.48-.37.63-.66.21-.38.34-.88.34-1.49s-.11-1.24-.32-1.87c-.53-1.59-1.67-3.13-2.99-3.89l-1.98,1.15c1.32.76,2.46,2.3,2.99,3.89.21.63.34,1.26.32,1.87,0,.6-.13,1.1-.34,1.49-.17.28-.38.51-.63.66Z" style="fill:#355d75; stroke:#023452; stroke-miterlimit:10; stroke-width:.75px;"/><path d="M32.63,5.84c.21.63.34,1.26.32,1.87,0,.6-.13,1.1-.34,1.49l68.41,39.49c-.21-.63-.34-1.26-.32-1.87,0-.6.13-1.1.34-1.49L32.63,5.84h0Z" style="fill:#023452; stroke:#023452; stroke-miterlimit:10; stroke-width:.75px;"/><polygon points="101.04 45.34 103.02 44.19 34.61 4.7 32.63 5.84 101.04 45.34" style="fill:#c2ced6; stroke:#023452; stroke-miterlimit:10; stroke-width:.75px;"/><path d="M101.04,45.34l1.98-1.15c-.21.38-.34.88-.34,1.49s.11,1.24.32,1.87c-.59.35-1.39.8-1.98,1.15-.21-.63-.34-1.26-.32-1.87,0-.6.13-1.1.34-1.49Z" style="fill:none; stroke:#023452; stroke-miterlimit:10; stroke-width:.75px;"/><path d="M103.65,43.53l-1.98,1.15c.6-.35,1.45-.31,2.37.24l1.98-1.15c-.93-.53-1.77-.59-2.37-.24Z" style="fill:#355d75; stroke:#023452; stroke-miterlimit:10; stroke-width:.75px;"/><path d="M106.41,52.81l1.98-1.15c.6-.35.97-1.08.97-2.13,0-2.12-1.49-4.69-3.33-5.76l-1.98,1.15c1.84,1.07,3.33,3.64,3.33,5.76,0,1.05-.38,1.8-.97,2.13Z" style="fill:#355d75; stroke:#023452; stroke-miterlimit:10; stroke-width:.75px;"/><path d="M104.05,44.91c-1.32-.76-2.46-.53-3,.42-.21.38-.34.88-.34,1.49s.11,1.24.32,1.87c.53,1.59,1.67,3.13,2.99,3.89,1.84,1.07,3.34.21,3.34-1.91s-1.49-4.69-3.33-5.76h.01Z" style="fill:#355d75; stroke:#023452; stroke-miterlimit:10; stroke-width:.75px;"/><path d="M62.32,30.97l6.44,3.75c-.13-.07-.2-.22-.2-.44l-6.44-3.75c0,.21.07.37.2.44Z" style="fill:#023452; stroke:#023452; stroke-miterlimit:10; stroke-width:.75px;"/><path d="M73.16,22.57l-6.44-3.75c-.13-.07-.29-.06-.48.04l6.44,3.75c.18-.11.35-.11.48-.04h0Z" style="fill:#355d75; stroke:#023452; stroke-miterlimit:10; stroke-width:.75px;"/><polygon points="68.54 25.79 62.1 22.04 62.13 30.53 68.57 34.28 68.54 25.79" style="fill:#023452; stroke:#023452; stroke-miterlimit:10; stroke-width:.75px;"/><polygon points="72.68 22.63 66.24 18.88 62.77 20.89 69.22 24.64 72.68 22.63" style="fill:#355d75; stroke:#023452; stroke-miterlimit:10; stroke-width:.75px;"/><path d="M69.22,24.64l-6.44-3.75c-.38.21-.67.73-.67,1.17l6.44,3.75c0-.42.29-.95.67-1.17Z" style="fill:#023452; stroke:#023452; stroke-miterlimit:10; stroke-width:.75px;"/><path d="M69.22,24.64l2.98-1.71-.28,1.33h0l-1.9,1.1.03,7.69h0l-.28,1.33-.51.29c-.38.21-.67.04-.67-.38l-.03-8.49c0-.42.29-.95.67-1.17h-.01Z" style="fill:#023452; stroke:#023452; stroke-miterlimit:10; stroke-width:.75px;"/><path d="M32.36,8.06c0,2.12-1.5,2.98-3.34,1.91-1.84-1.07-3.33-3.64-3.33-5.76s1.5-2.98,3.34-1.91,3.33,3.64,3.33,5.76h0ZM29.02,8.01c.9.52,1.63.1,1.64-.93,0-1.04-.73-2.3-1.63-2.82-.9-.52-1.63-.1-1.64.93,0,1.04.73,2.3,1.63,2.82h0Z" style="fill:#023452; stroke:#023452; stroke-miterlimit:10; stroke-width:.75px;"/><path d="M29.03,4.26c-.9-.52-1.63-.1-1.64.93,0,1.04.73,2.3,1.63,2.82.9.52,1.63.1,1.64-.93,0-1.04-.73-2.3-1.63-2.82Z" style="fill:#023452; stroke:#023452; stroke-miterlimit:10; stroke-width:.75px;"/><path d="M31.39,10.2l.6-.35c.6-.35.97-1.1.97-2.13,0-2.12-1.49-4.69-3.33-5.76l-.6.35c1.84,1.07,3.33,3.64,3.33,5.76,0,1.05-.38,1.8-.97,2.13Z" style="fill:#355d75; stroke:#023452; stroke-miterlimit:10; stroke-width:.75px;"/><path d="M27.26,1.72l-.6.35c.6-.35,1.45-.31,2.37.24l.6-.35c-.93-.53-1.77-.59-2.37-.24Z" style="fill:#355d75; stroke:#023452; stroke-miterlimit:10; stroke-width:.75px;"/><path d="M106.77,51.02c0,2.12-1.5,2.98-3.34,1.91-1.84-1.07-3.33-3.64-3.33-5.76s1.5-2.98,3.34-1.91c1.84,1.07,3.33,3.64,3.33,5.76ZM103.43,50.97c.9.52,1.63.1,1.64-.93,0-1.04-.73-2.3-1.63-2.82s-1.63-.1-1.64.93.73,2.3,1.63,2.82h0Z" style="fill:#023452; stroke:#023452; stroke-miterlimit:10; stroke-width:.75px;"/><path d="M103.44,47.23c-.9-.52-1.63-.1-1.64.93,0,1.04.73,2.3,1.63,2.82s1.63.1,1.64-.93-.73-2.3-1.63-2.82Z" style="fill:#023452; stroke:#023452; stroke-miterlimit:10; stroke-width:.75px;"/><path d="M105.8,53.16l.6-.35c.6-.35.97-1.1.97-2.13,0-2.12-1.49-4.69-3.33-5.76l-.6.35c1.84,1.07,3.33,3.64,3.33,5.76,0,1.05-.38,1.8-.97,2.13Z" style="fill:#355d75; stroke:#023452; stroke-miterlimit:10; stroke-width:.75px;"/><path d="M101.67,44.68l-.6.35c.6-.35,1.45-.31,2.37.24l.6-.35c-.93-.53-1.77-.59-2.37-.24Z" style="fill:#355d75; stroke:#023452; stroke-miterlimit:10; stroke-width:.75px;"/></svg>