<?xml version="1.0" encoding="UTF-8"?><svg id="a" xmlns="http://www.w3.org/2000/svg" viewBox="0 0 135 135"><path d="M12.85,103.76l14.3,8.26c3.46,2,9.36-.04,9.26-2.76-.1-1.73,1-3.48,3.29-4.81,4.39-2.54,11.52-2.54,15.91,0,2.2,1.27,3.3,2.93,3.3,4.59v9.83c0,1.66-1.1,3.33-3.3,4.59-1.59.92-3.55,1.51-5.6,1.76l15.3,8.83h0l22.35-12.9c3.46-2,9.36.04,9.26,2.76-.1,1.73,1,3.49,3.29,4.81,4.2,2.43,10.9,2.53,15.32.32-2.21-1.11-4.98-1.63-7.73-1.58-3.39.04-6.18-1.71-6.18-3.44v-9.83c0-.67.42-1.34,1.39-1.9l14.77-8.52-14.3-8.26c-3.47-2-9.36.04-9.26,2.76.1,1.73-1,3.49-3.29,4.81-4.39,2.54-11.52,2.54-15.91,0-2.2-1.27-3.3-2.93-3.3-4.59v-9.83c0-1.66,1.1-3.32,3.3-4.59,1.59-.92,3.55-1.51,5.6-1.76l-15.3-8.83-23.28,13.44c-3.47,2-9.36-.04-9.26-2.76.1-1.73-1-3.48-3.29-4.81-4.2-2.42-10.9-2.53-15.32-.32,2.21,1.11,4.99,1.63,7.74,1.58,3.39-.04,6.18,1.71,6.18,3.44v9.83c0,.67-.42,1.35-1.39,1.9l-13.84,7.99Z" style="fill:#c0c3ca; stroke:#023452; stroke-miterlimit:10;"/><path d="M101.63,114.19v9.83c0,1.73,2.78,3.48,6.18,3.44,2.75-.05,5.52.47,7.73,1.58.2-.1.4-.21.6-.32,4.39-2.54,4.39-6.65,0-9.19-2.29-1.32-5.33-1.96-8.33-1.9-3.39.04-6.18-1.71-6.18-3.44Z" style="fill:#023452; stroke:#023452; stroke-miterlimit:10;"/><path d="M47.29,115.54c-4.72-.05-8.25,3.35-4.79,5.35l7.52,4.34c2.05-.25,4-.84,5.6-1.76,2.2-1.27,3.3-2.93,3.3-4.59v-9.83c0,1.66-1.1,3.33-3.3,4.59-2.29,1.32-5.33,1.96-8.33,1.9Z" style="fill:#023452; stroke:#023452; stroke-miterlimit:10;"/><path d="M4.34,98.85l8.51,4.91,13.84-7.99c.97-.56,1.39-1.23,1.39-1.9v-9.83c0,.67-.42,1.34-1.39,1.9l-22.35,12.91Z" style="fill:#023452; stroke:#023452; stroke-miterlimit:10;"/><path d="M13.58,69.51c-4.39,2.54-4.39,6.65,0,9.19.19.11.39.22.6.32,4.42-2.21,11.12-2.11,15.32.32,2.29,1.32,3.39,3.08,3.29,4.81-.1,2.72,5.8,4.76,9.26,2.76l23.28-13.44v-9.83l-23.28,13.44c-3.47,2-9.36-.04-9.26-2.76.1-1.73-1-3.48-3.29-4.81-4.39-2.54-11.52-2.54-15.91,0Z" style="fill:#023452; stroke:#023452; stroke-miterlimit:10;"/><path d="M65.32,63.64v9.83l15.3,8.83c.9-.11,1.82-.16,2.73-.14,4.72.05,8.25-3.35,4.79-5.35l-22.81-13.17Z" style="fill:#023452; stroke:#023452; stroke-miterlimit:10;"/><path d="M71.72,88.65v9.83c0,1.66,1.1,3.32,3.3,4.59,4.39,2.54,11.52,2.54,15.91,0,2.29-1.32,3.39-3.07,3.29-4.81-.1-2.72,5.8-4.76,9.26-2.76l14.3,8.26,8.51-4.91-22.81-13.17c-3.47-2-9.36.04-9.26,2.76.1,1.73-1,3.49-3.29,4.81-4.39,2.54-11.52,2.54-15.91,0-2.2-1.27-3.3-2.93-3.3-4.59Z" style="fill:#023452; stroke:#023452; stroke-miterlimit:10;"/><path d="M60.25,37.23c0-.33-.93-.44-1.16-.44-.51,0-.88.2-1.51.2-.04,0-.08,0-.12,0,2.12-.82,3.71-1.49,3.71-2.07,0-.15-.47-2.78-7.63-.31-.61.21-7.82,3.21-7.82,4.28,0,.48.23,1.02.47,1.33.39.76,1.36.94,2.21.94,1.4,0,2.38-.73,3.66-1.33.8-.37,1.65-.64,2.65-.8,2.02-.36,5.54-1.52,5.54-1.8Z" style="fill:#fff; stroke:#023452; stroke-miterlimit:10;"/><path d="M8.7,46.17l22.82,13.17c3.46,2,9.36-.04,9.26-2.76-.1-1.73,1-3.48,3.29-4.81,4.14-2.39,10.7-2.53,15.12-.42.27-.13.53-.27.79-.42,4.39-2.54,4.39-6.65,0-9.19-4.39-2.53-11.52-2.53-15.91,0-2.29,1.32-3.39,3.07-3.29,4.81.1,2.73-5.8,4.77-9.26,2.76l-22.82-13.17v10.02Z" style="fill:#fff; stroke:#023452; stroke-miterlimit:10;"/><path d="M115.17,55.11l15.49-8.95v-10.02l-23.28,13.44c-3.46,2,.07,5.4,4.79,5.35,1.01-.02,2.02.04,3,.18Z" style="fill:#fff; stroke:#023452; stroke-miterlimit:10;"/><path d="M31.05,23.25c3.47-2-.07-5.4-4.78-5.35-3,.06-6.04-.58-8.33-1.9-2.2-1.27-3.3-2.93-3.3-4.59v10.02c0,1.66,1.1,3.32,3.3,4.59,1.52.88,3.38,1.45,5.33,1.72l7.78-4.49Z" style="fill:#fff; stroke:#023452; stroke-miterlimit:10;"/><path d="M123.79,61.43c0,1.66-1.1,3.33-3.3,4.59-4.39,2.54-11.52,2.54-15.91,0-2.29-1.32-3.39-3.07-3.29-4.81.09-2.72-5.8-4.76-9.26-2.76l-22.35,12.91v10.02l22.35-12.91c3.46-2,9.35.04,9.26,2.76-.1,1.73,1,3.48,3.29,4.81,4.39,2.54,11.52,2.54,15.91,0,2.2-1.27,3.3-2.93,3.3-4.59v-10.02Z" style="fill:#fff; stroke:#023452; stroke-miterlimit:10;"/><path d="M37.14,11.62c.1-1.73-1-3.48-3.29-4.81-4.39-2.53-11.52-2.53-15.91,0-2.2,1.27-3.3,2.93-3.3,4.59s1.1,3.33,3.3,4.59c2.29,1.32,5.33,1.96,8.33,1.9,4.72-.05,8.25,3.35,4.78,5.35l-22.35,12.91,22.82,13.17c3.46,2,9.36-.04,9.26-2.76-.1-1.73,1-3.48,3.29-4.81,4.39-2.54,11.52-2.54,15.91,0,4.39,2.54,4.39,6.65,0,9.19-.26.15-.52.29-.79.42-2.18,1.04-4.87,1.53-7.54,1.48-3.39-.04-6.18,1.71-6.18,3.44,0,.67.42,1.35,1.39,1.9l22.82,13.17,22.35-12.91c3.46-2,9.35.04,9.26,2.76-.1,1.73,1,3.48,3.29,4.81,4.39,2.54,11.52,2.54,15.91,0,2.2-1.27,3.3-2.93,3.3-4.59s-1.1-3.33-3.3-4.59c-1.53-.88-3.38-1.45-5.33-1.72-.98-.14-2-.19-3-.18-4.72.06-8.25-3.35-4.79-5.35l23.28-13.44-22.82-13.17c-3.46-2-9.36.04-9.26,2.76.1,1.73-1,3.48-3.29,4.81-4.14,2.39-10.7,2.53-15.12.41-.27-.13-.53-.27-.79-.41-4.39-2.54-4.39-6.65,0-9.19,2.29-1.32,5.33-1.96,8.33-1.9,3.39.04,6.18-1.71,6.18-3.44,0-.67-.42-1.34-1.39-1.9L69.68.95l-23.28,13.44c-3.46,2-9.36-.04-9.26-2.76Z" style="fill:#f47d20; stroke:#023452; stroke-miterlimit:10;"/><path d="M46.87,68.2l22.82,13.17v-10.02l-22.82-13.17c-.97-.56-1.39-1.23-1.39-1.9v10.02c0,.67.42,1.34,1.39,1.9Z" style="fill:#fff; stroke:#023452; stroke-miterlimit:10;"/><path d="M79.38,21.36c-4.39,2.54-4.39,6.65,0,9.19.25.15.52.29.79.41,2.18-1.04,4.87-1.53,7.54-1.48,3.39.04,6.18-1.71,6.18-3.44v-10.02c0,1.73-2.78,3.48-6.18,3.44-3-.06-6.04.58-8.33,1.9Z" style="fill:#fff; stroke:#023452; stroke-miterlimit:10;"/></svg>