<?xml version="1.0" encoding="UTF-8"?><svg id="a" xmlns="http://www.w3.org/2000/svg" viewBox="0 0 135 135"><path d="M41.67,65.53v9.19c0,1.66-1.1,3.32-3.3,4.59-4.39,2.54-11.52,2.54-15.91,0-2.2-1.27-3.3-2.93-3.3-4.59v-9.19c0,1.66,1.1,3.32,3.3,4.59,4.4,2.54,11.52,2.54,15.91,0,2.2-1.27,3.3-2.93,3.3-4.59Z" style="fill:#fff;"/><path d="M41.67,56.33v9.2c0,1.66-1.1,3.32-3.3,4.59-4.39,2.54-11.52,2.54-15.91,0-2.2-1.27-3.3-2.93-3.3-4.59v-9.2c0,1.67,1.1,3.33,3.3,4.6,4.4,2.54,11.52,2.54,15.91,0,2.2-1.27,3.3-2.93,3.3-4.6Z" style="fill:#678597;"/><path d="M41.67,47.13v9.2c0,1.67-1.1,3.33-3.3,4.6-4.39,2.54-11.52,2.54-15.91,0-2.2-1.27-3.3-2.93-3.3-4.6v-9.2c0,1.67,1.1,3.33,3.3,4.59,4.4,2.54,11.52,2.54,15.91,0,2.2-1.26,3.3-2.93,3.3-4.59Z" style="fill:#678597;"/><path d="M41.67,37.94v9.19c0,1.67-1.1,3.33-3.3,4.59-4.39,2.54-11.52,2.54-15.91,0-2.2-1.26-3.3-2.93-3.3-4.59v-9.19c0,1.66,1.1,3.32,3.3,4.59,4.4,2.53,11.52,2.53,15.91,0,2.2-1.27,3.3-2.93,3.3-4.59Z" style="fill:#678597;"/><path d="M41.67,28.74v9.2c0,1.66-1.1,3.32-3.3,4.59-4.39,2.53-11.52,2.53-15.91,0-2.2-1.27-3.3-2.93-3.3-4.59v-9.2c0,1.67,1.1,3.33,3.3,4.6,4.4,2.54,11.52,2.54,15.91,0,2.2-1.27,3.3-2.93,3.3-4.6Z" style="fill:#678597;"/><path d="M41.67,19.54v9.19c0,1.67-1.1,3.33-3.3,4.6-4.39,2.54-11.52,2.54-15.91,0-2.2-1.27-3.3-2.93-3.3-4.6v-9.19c0,1.66,1.1,3.32,3.3,4.59,4.4,2.53,11.52,2.53,15.91,0,2.2-1.27,3.3-2.93,3.3-4.59Z" style="fill:#678597;"/><path d="M41.67,13.37v6.18c0,1.66-1.1,3.32-3.3,4.59-4.39,2.53-11.52,2.53-15.91,0-2.2-1.27-3.3-2.93-3.3-4.59v-9.06c0,1.66,1.1,3.32,3.3,4.59,4.4,2.53,11.52,2.53,15.91,0,2.2-1.27,3.3-2.93,3.3-4.59v2.89Z" style="fill:#678597;"/><path d="M38.37,5.88c2.2,1.27,3.3,2.93,3.3,4.59s-1.1,3.32-3.3,4.59c-4.39,2.53-11.52,2.53-15.91,0-2.2-1.27-3.3-2.93-3.3-4.59s1.1-3.32,3.3-4.59c4.4-2.53,11.52-2.53,15.91,0Z" style="fill:#fff;"/><path d="M41.67,10.48c0,1.66-1.1,3.32-3.3,4.59-4.39,2.53-11.52,2.53-15.91,0-2.2-1.27-3.3-2.93-3.3-4.59s1.1-3.32,3.3-4.59c4.4-2.53,11.52-2.53,15.91,0,2.2,1.27,3.3,2.93,3.3,4.59Z" style="fill:none; stroke:#023452; stroke-linecap:round; stroke-linejoin:round;"/><line x1="19.16" y1="74.72" x2="19.16" y2="10.48" style="fill:none; stroke:#023452; stroke-linecap:round; stroke-linejoin:round;"/><path d="M41.67,74.72c0,1.66-1.1,3.32-3.3,4.59-4.39,2.54-11.52,2.54-15.91,0-2.2-1.27-3.3-2.93-3.3-4.59" style="fill:none; stroke:#023452; stroke-linecap:round; stroke-linejoin:round;"/><path d="M41.67,19.54c0,1.66-1.1,3.32-3.3,4.59-4.39,2.53-11.52,2.53-15.91,0-2.2-1.27-3.3-2.93-3.3-4.59" style="fill:none; stroke:#023452; stroke-linecap:round; stroke-linejoin:round;"/><path d="M41.67,28.74c0,1.67-1.1,3.33-3.3,4.6-4.39,2.54-11.52,2.54-15.91,0-2.2-1.27-3.3-2.93-3.3-4.6" style="fill:none; stroke:#023452; stroke-linecap:round; stroke-linejoin:round;"/><path d="M41.67,37.94c0,1.66-1.1,3.32-3.3,4.59-4.39,2.53-11.52,2.53-15.91,0-2.2-1.27-3.3-2.93-3.3-4.59" style="fill:none; stroke:#023452; stroke-linecap:round; stroke-linejoin:round;"/><path d="M41.67,47.13c0,1.67-1.1,3.33-3.3,4.59-4.39,2.54-11.52,2.54-15.91,0-2.2-1.26-3.3-2.93-3.3-4.59" style="fill:none; stroke:#023452; stroke-linecap:round; stroke-linejoin:round;"/><path d="M41.67,56.33c0,1.67-1.1,3.33-3.3,4.6-4.39,2.54-11.52,2.54-15.91,0-2.2-1.27-3.3-2.93-3.3-4.6" style="fill:none; stroke:#023452; stroke-linecap:round; stroke-linejoin:round;"/><path d="M41.67,65.53c0,1.66-1.1,3.32-3.3,4.59-4.39,2.54-11.52,2.54-15.91,0-2.2-1.27-3.3-2.93-3.3-4.59" style="fill:none; stroke:#023452; stroke-linecap:round; stroke-linejoin:round;"/><line x1="41.67" y1="10.48" x2="41.67" y2="74.72" style="fill:none; stroke:#023452; stroke-linecap:round; stroke-linejoin:round;"/><polygon points="0 94.54 0 103.68 47.35 131.02 47.35 121.87 0 94.54" style="fill:#fff;"/><polygon points="0 85.67 0 94.54 47.35 121.87 47.35 113.01 0 85.67" style="fill:#fff;"/><polygon points="0 76.46 0 85.67 47.35 113.01 47.35 103.8 0 76.46" style="fill:#fff;"/><path d="M0,76.46l47.35,27.34,87.65-50.59-47.36-27.34L0,76.46ZM56.2,71.35c-6.24-3.59-6.24-9.44,0-13.04,6.24-3.6,16.36-3.6,22.6,0,6.24,3.59,6.24,9.44,0,13.04-6.24,3.61-16.35,3.61-22.6,0Z" style="fill:#fff;"/><polygon points="47.35 121.87 47.35 131.02 135 80.42 135 71.28 47.35 121.87" style="fill:#678597;"/><polygon points="47.35 113.01 47.35 121.87 135 71.28 135 62.41 47.35 113.01" style="fill:#678597;"/><polygon points="47.35 103.8 47.35 113.01 135 62.41 135 53.21 47.35 103.8" style="fill:#678597;"/><path d="M56.2,58.31c-6.24,3.59-6.24,9.44,0,13.04,6.24,3.61,16.36,3.61,22.6,0,6.24-3.59,6.24-9.44,0-13.04-6.24-3.6-16.35-3.6-22.6,0Z" style="fill:#f47d20;"/><polyline points="97.66 40.45 87.64 34.66 77.43 40.56" style="fill:none; stroke:#023452; stroke-linecap:round; stroke-linejoin:round;"/><polyline points="109.74 47.42 119.76 53.21 109.55 59.1" style="fill:none; stroke:#023452; stroke-linecap:round; stroke-linejoin:round;"/><polyline points="25.39 70.6 15.23 76.46 25.25 82.25" style="fill:none; stroke:#023452; stroke-linecap:round; stroke-linejoin:round;"/><polyline points="57.51 89.14 47.35 95.01 37.33 89.22" style="fill:none; stroke:#023452; stroke-linecap:round; stroke-linejoin:round;"/><path d="M56.2,71.35c-6.24-3.59-6.24-9.44,0-13.04,6.24-3.6,16.36-3.6,22.6,0,6.24,3.59,6.24,9.44,0,13.04-6.24,3.61-16.35,3.61-22.6,0Z" style="fill:none; stroke:#023452; stroke-linecap:round; stroke-linejoin:round;"/><polygon points="47.35 103.8 135 53.21 87.64 25.86 0 76.46 47.35 103.8" style="fill:none; stroke:#023452; stroke-linecap:round; stroke-linejoin:round;"/><polyline points="135 53.21 135 80.42 47.35 131.02 0 103.68 0 76.46" style="fill:none; stroke:#023452; stroke-linecap:round; stroke-linejoin:round;"/><polyline points="135 71.28 47.35 121.87 0 94.54" style="fill:none; stroke:#023452; stroke-linecap:round; stroke-linejoin:round;"/><polyline points="135 62.41 47.35 113.01 0 85.67" style="fill:none; stroke:#023452; stroke-linecap:round; stroke-linejoin:round;"/><line x1="47.35" y1="103.8" x2="47.35" y2="131.02" style="fill:none; stroke:#023452; stroke-linecap:round; stroke-linejoin:round;"/><path d="M126.25,88.55v9.19c0,1.67-1.1,3.33-3.3,4.59-4.39,2.54-11.52,2.54-15.91,0-2.2-1.26-3.3-2.93-3.3-4.59v-9.19c0,1.66,1.1,3.32,3.3,4.59,4.4,2.53,11.52,2.53,15.91,0,2.2-1.27,3.3-2.93,3.3-4.59Z" style="fill:#fff;"/><path d="M126.25,79.35v9.2c0,1.66-1.1,3.32-3.3,4.59-4.39,2.53-11.52,2.53-15.91,0-2.2-1.27-3.3-2.93-3.3-4.59v-9.2c0,1.67,1.1,3.33,3.3,4.6,4.4,2.54,11.52,2.54,15.91,0,2.2-1.27,3.3-2.93,3.3-4.6Z" style="fill:#fff;"/><path d="M126.25,70.16v9.19c0,1.67-1.1,3.33-3.3,4.6-4.39,2.54-11.52,2.54-15.91,0-2.2-1.27-3.3-2.93-3.3-4.6v-9.19c0,1.66,1.1,3.32,3.3,4.59,4.4,2.53,11.52,2.53,15.91,0,2.2-1.27,3.3-2.93,3.3-4.59Z" style="fill:#fff;"/><path d="M126.25,63.98v6.18c0,1.66-1.1,3.32-3.3,4.59-4.39,2.53-11.52,2.53-15.91,0-2.2-1.27-3.3-2.93-3.3-4.59v-9.06c0,1.66,1.1,3.32,3.3,4.59,4.4,2.53,11.52,2.53,15.91,0,2.2-1.27,3.3-2.93,3.3-4.59v2.89Z" style="fill:#fff;"/><path d="M122.95,56.5c2.2,1.27,3.3,2.93,3.3,4.59s-1.1,3.32-3.3,4.59c-4.39,2.53-11.52,2.53-15.91,0-2.2-1.27-3.3-2.93-3.3-4.59s1.1-3.32,3.3-4.59c4.4-2.53,11.52-2.53,15.91,0Z" style="fill:#fff;"/><path d="M126.25,61.09c0,1.66-1.1,3.32-3.3,4.59-4.39,2.53-11.52,2.53-15.91,0-2.2-1.27-3.3-2.93-3.3-4.59s1.1-3.32,3.3-4.59c4.4-2.53,11.52-2.53,15.91,0,2.2,1.27,3.3,2.93,3.3,4.59Z" style="fill:none; stroke:#023452; stroke-linecap:round; stroke-linejoin:round;"/><path d="M126.25,70.16c0,1.66-1.1,3.32-3.3,4.59-4.39,2.53-11.52,2.53-15.91,0-2.2-1.27-3.3-2.93-3.3-4.59" style="fill:none; stroke:#023452; stroke-linecap:round; stroke-linejoin:round;"/><path d="M126.25,79.35c0,1.67-1.1,3.33-3.3,4.6-4.39,2.54-11.52,2.54-15.91,0-2.2-1.27-3.3-2.93-3.3-4.6" style="fill:none; stroke:#023452; stroke-linecap:round; stroke-linejoin:round;"/><path d="M126.25,88.55c0,1.66-1.1,3.32-3.3,4.59-4.39,2.53-11.52,2.53-15.91,0-2.2-1.27-3.3-2.93-3.3-4.59" style="fill:none; stroke:#023452; stroke-linecap:round; stroke-linejoin:round;"/><path d="M126.25,61.09v36.65c0,1.67-1.1,3.33-3.3,4.59-4.39,2.54-11.52,2.54-15.91,0-2.2-1.26-3.3-2.93-3.3-4.59v-36.65" style="fill:none; stroke:#023452; stroke-linecap:round; stroke-linejoin:round;"/></svg>