<?xml version="1.0" encoding="UTF-8"?><svg id="a" xmlns="http://www.w3.org/2000/svg" viewBox="0 0 135 135"><polygon points="126.49 93.97 135 98.56 67.5 135 0 98.56 8.52 93.96 8.52 95.61 67.5 127.45 126.49 95.61 126.49 93.97" style="fill:#f47d20;"/><path d="M109.89,91.38c-2.16.47-4.77.3-6.71-.75-1.22-.66-1.84-1.53-1.84-2.39v-22.82l12.51-6.64v29.46c0,.63-.3,1.19-.81,1.68-.05.05-.11.1-.17.15-.22.18-.47.35-.75.51-.14.08-.29.15-.44.22-.33.14-.67.28-1.05.39-.24.07-.49.13-.75.19Z" style="fill:#d8dbe4;"/><path d="M47.9,45.46l-9.81-14.15s1.37-.73,1.42-.75c.03-.02.07-.04.1-.05.02-.01.05-.03.08-.04.02-.01.03-.02.05-.03.04-.02.08-.04.13-.07.02,0,.04-.01.05-.03.12-.06,27.16-14.39,28.81-15.29.04-.02.07-.04.1-.06,0,0,12.06-6.39,12.32-6.53.05-.02.1-.05.15-.08,2.34-1.25,15.74-8.36,15.79-8.38l29.49,42.53-58.98,31.31-19.69-28.38Z" style="fill:#fff;"/><path d="M84.26,100.93c-.23-.11-.44-.22-.65-.34-.27-.16-.51-.35-.71-.54-.51-.49-.82-1.05-.82-1.68v-22.72l12.51-6.64v29.36c0,.87-.62,1.73-1.84,2.39-1.94,1.05-4.55,1.23-6.71.75-.19-.04-.37-.08-.54-.13-.45-.13-.87-.27-1.25-.44Z" style="fill:#d8dbe4;"/><path d="M81.13,8.46c-.26.14-.52.27-.78.42.26-.14.53-.27.78-.42Z" style="fill:#fff;"/><polygon points="67.58 83.34 67.58 73.83 126.56 42.53 126.56 52.04 101.34 65.42 101.34 65.43 82.08 75.64 82.08 75.65 67.58 83.34" style="fill:#023452;"/><path d="M69.14,14.83l-.32.17c.11-.05.21-.11.32-.17Z" style="fill:#fff;"/><path d="M63.09,80.91s-.04-.02-.06-.04c.02.01.05.02.06.04Z" style="fill:#c0c3ca;"/><path d="M62.2,80.44c.29.15,1.05.57,1.14.62.19.1.29.15.29.15.02.01.04.02.06.04,0,0,.02,0,.02.01.06.03.12.06.18.1.54.3,2.14,1.15,3.04,1.64.04.02.07.04.1.06.3.16.51.27.54.29l6.39-3.39v29c0,2.98-6.74,4.51-10.68,2.39-1.22-.66-1.83-1.53-1.83-2.39v-28.91s.03,0,.04.01c.05.04.11.06.16.09.19.1.37.2.54.29Z" style="fill:#fff;"/><path d="M60.03,116.53l-.46-.25c.15.08.3.17.46.25Z" style="fill:#fff;"/><path d="M36.82,38.64l22.93,33.05L13.91,46.94c4.24-1.53,22.89-8.29,22.92-8.3ZM39.48,51.33c0-1.58-1.19-3.5-2.66-4.29-1.46-.79-2.64-.15-2.64,1.43s1.18,3.5,2.64,4.29c1.47.8,2.66.15,2.66-1.43Z" style="fill:#d8dbe4;"/><path d="M55,113.82l-.54-.3.54.3Z" style="fill:#fff;"/><path d="M52.27,23.78c-.18.1-.36.19-.53.29.18-.1.36-.2.53-.29Z" style="fill:#fff;"/><path d="M47.9,45.46l.46.65c-.15-.22-.3-.44-.46-.65Z" style="fill:#fff;"/><path d="M46.7,26.74c.17-.08.32-.17.48-.25-.17.08-.32.18-.48.25Z" style="fill:#fff;"/><path d="M44.18,70.71c.16.08,8.79,4.74,9.47,5.11v22.54c0,.87-.61,1.73-1.83,2.39-2.44,1.32-6.4,1.32-8.85,0-1.22-.65-1.83-1.52-1.83-2.39v-29.29c.44.24,2.88,1.56,3.03,1.64Z" style="fill:#fff;"/><path d="M39.91,30.34s-.04.02-.05.03c.02,0,.03-.02.05-.03Z" style="fill:#fff;"/><path d="M39.73,30.44s.08-.05.13-.07c-.05.03-.09.05-.13.07Z" style="fill:#fff;"/><path d="M39.67,30.47s-.05.03-.08.04c.02-.02.05-.03.08-.04Z" style="fill:#fff;"/><path d="M46.02,27.1c-2.39,1.27-5.99,3.18-6.11,3.25-.02,0-.04.02-.05.03-.05.02-.08.04-.13.07-.02,0-.04.01-.05.03-.03.01-.05.02-.08.04-.03.01-.07.03-.1.05-.05.02-.1.05-.14.08-.08.04-1.26.66-1.27.67l-29.44,10.67c1.59-.84,58.92-31.28,58.95-31.29L97.07,0s-13.45,7.14-15.79,8.38c-.05.03-.1.06-.15.08-.26.14-.52.28-.78.42-1.35.72-11.43,6.07-11.53,6.12-.03.02-.06.04-.1.06-1.65.9-22.47,11.93-22.7,12.04Z" style="fill:#fff;"/><path d="M36.82,47.05c1.47.79,2.66,2.71,2.66,4.29s-1.19,2.22-2.66,1.43c-1.46-.79-2.64-2.71-2.64-4.29s1.18-2.22,2.64-1.43Z" style="fill:#f47d20;"/><path d="M33.22,90.07l-.23.17.23-.17Z" style="fill:#fff;"/><path d="M32.66,90.45c.07-.04.14-.08.2-.13l-.2.13Z" style="fill:#fff;"/><path d="M29.49,62.78c.24.13.49.27.74.4-.25-.13-.5-.27-.74-.4Z" style="fill:#fff;"/><path d="M21.68,81.62v-23.05s11.64,6.28,12.51,6.75v22.92c0,.63-.32,1.19-.82,1.68-.05.05-.11.1-.16.15l-.23.17-.14.09c-.06.04-.13.08-.2.13-.07.04-.14.08-.2.12-.14.08-.29.15-.44.22-.33.14-.68.29-1.05.39-.25.07-.5.13-.75.19-2.15.47-4.77.3-6.71-.75-1.22-.66-1.83-1.53-1.83-2.39v-6.62Z" style="fill:#fff;"/><path d="M59.75,71.69l-22.93-33.05s-18.68,6.77-22.92,8.3l45.85,24.75ZM50.89,74.33c-1.98-1.09-14.48-7.81-16.7-9h0s-25.59-13.83-25.59-13.83v-9.51s0,0,.02,0h.03s29.44-10.68,29.44-10.68l29.5,42.53v9.51s-.24-.13-.54-.29c-.03-.02-.06-.04-.1-.06-.9-.49-3.16-1.71-3.22-1.74,0,0-.02,0-.02-.01-.02-.01-.05-.02-.06-.04,0,0-.11-.05-.29-.15-.09-.05-.17-.09-.26-.14-.02-.01-.04-.02-.06-.04-.03-.01-.06-.03-.08-.04-.21-.11-1.09-.59-1.29-.69-.05-.03-.11-.06-.16-.09,0,0-.02-.01-.04-.01-.38-.21-.81-.43-1.26-.68-.1-.05-1.85-1.01-2.76-1.49,0,0-.02,0-.02,0-.79-.43-6.3-3.4-6.53-3.53Z" style="fill:#fff;"/><path d="M14.88,92.16s.07.04.09.05c-.03-.02-.06-.04-.09-.05Z" style="fill:#c0c3ca;"/><path d="M14.61,92.02c-.06-.03-.12-.06-.17-.09.05.03.11.06.17.09Z" style="fill:#fff;"/><path d="M14.38,91.9s.03.01.05.03c-.02,0-.04-.02-.05-.03Z" style="fill:#fff;"/><path d="M12.17,90.7c.05.03.1.06.15.08-.04-.02-.09-.05-.15-.08Z" style="fill:#c0c3ca;"/><path d="M46.74,109.36c-.68-.36-32.35-17.46-32.36-17.47-.04-.02-.07-.04-.1-.06-.08-.04-.15-.08-.22-.12-.15-.08-.28-.15-.41-.22-.09-.06-.17-.1-.26-.14-.08-.04-.16-.08-.24-.13-.36-.19-.56-.3-.56-.31-.07-.04-.14-.07-.2-.11h0s-.04-.03-.05-.04c-.05-.03-.1-.06-.15-.08-.13-.07-.56-.3-.62-.33h0s-.11-.06-.21-.11c-.08-.04-.15-.08-.23-.13-.08-.04-.14-.08-.22-.12h0c-.11-.06-1.96-1.06-2.36-1.28l13.16-7.11v6.62c0,.86.61,1.72,1.83,2.39,1.94,1.05,4.56,1.22,6.71.75.26-.06.51-.12.75-.19.37-.11.72-.25,1.05-.39.15-.07.29-.14.44-.22.07-.04.14-.08.2-.12l.33-.22.23-.17c.05-.05.11-.1.16-.15.5-.49.82-1.04.82-1.68v-13.38l6.96-3.75v27.25c0,.87.61,1.73,1.83,2.39,2.45,1.32,6.41,1.32,8.85,0,1.22-.65,1.83-1.52,1.83-2.39v-22.54c.21.11,2.97,1.61,3.76,2.03,0,0,.02,0,.02,0,.9.49,3.64,1.96,4.02,2.18v28.91c0,.86.61,1.72,1.83,2.39,3.94,2.13,10.68.6,10.68-2.39v-29l8.11-4.3v22.72c0,.63.31,1.19.82,1.68.2.19.44.37.71.54.2.12.41.24.65.34.38.17.8.32,1.25.44.17.05.35.09.54.13,2.16.47,4.77.3,6.71-.75,1.22-.65,1.84-1.52,1.84-2.39v-26.86l6.75,3.65v13.09c0,.86.62,1.72,1.84,2.39,1.93,1.05,4.55,1.22,6.71.75.26-.06.5-.12.75-.19.38-.11.72-.25,1.05-.39.16-.07.3-.14.44-.22.28-.15.54-.33.75-.51.06-.05.11-.1.17-.15.51-.48.81-1.04.81-1.68v-6.33l12.63,6.81-58.99,31.84c-.15-.08-18.48-9.98-20.76-11.21Z" style="fill:#c0c3ca;"/><path d="M8.65,41.97h-.02s0,0,.02,0Z" style="fill:#fff;"/><path d="M60.03,116.53c.61.33,7.32,3.96,7.47,4.03l58.99-31.84v6.88l-58.99,31.84-58.98-31.84v-6.88c.4.22,2.25,1.22,2.36,1.28h0c.08.04.14.08.22.12.08.04.15.09.23.13.1.05.18.09.21.11h0c.07.04.14.08.2.11.13.07.29.16.42.23.06.04.11.06.15.08.02,0,.04.02.05.03h0c.06.04.14.08.2.11,0,0,.2.12.56.31.08.04.16.08.24.13.08.04.17.08.26.14.14.07.56.3.63.34.03.01.06.04.1.06.02,0,.04.02.05.03.05.03.11.06.17.09.08.04.17.09.27.15.03.01.06.03.09.05l.05.02c.06.04.12.06.18.1.12.07,44.84,24.2,44.84,24.2Z" style="fill:#fff;"/><polyline points="126.49 93.97 135 98.56 67.5 135 0 98.56 8.52 93.96" style="fill:none;"/><line x1="113.85" y1="81.91" x2="126.49" y2="88.73" style="fill:none; stroke:#023452; stroke-linecap:round; stroke-linejoin:round;"/><line x1="94.59" y1="71.51" x2="101.34" y2="75.16" style="fill:none; stroke:#023452; stroke-linecap:round; stroke-linejoin:round;"/><line x1="59.61" y1="79.04" x2="59.9" y2="79.2" style="fill:none; stroke:#023452; stroke-linecap:round; stroke-linejoin:round;"/><path d="M57.44,77.87c.14.07.27.15.41.23" style="fill:none; stroke:#023452; stroke-linecap:round; stroke-linejoin:round;"/><line x1="34.19" y1="74.87" x2="41.15" y2="71.11" style="fill:none; stroke:#023452; stroke-linecap:round; stroke-linejoin:round;"/><line x1="32.99" y1="90.23" x2="33.22" y2="90.07" style="fill:none; stroke:#023452; stroke-linecap:round; stroke-linejoin:round;"/><path d="M32.66,90.45c.07-.04.14-.08.2-.13" style="fill:none; stroke:#023452; stroke-linecap:round; stroke-linejoin:round;"/><line x1="8.52" y1="88.73" x2="21.68" y2="81.62" style="fill:none; stroke:#023452; stroke-linecap:round; stroke-linejoin:round;"/><path d="M12.32,90.78c-.05-.03-.1-.06-.15-.08" style="fill:none; stroke:#023452; stroke-linecap:round; stroke-linejoin:round;"/><line x1="14.28" y1="91.84" x2="14.21" y2="91.8" style="fill:none; stroke:#023452; stroke-linecap:round; stroke-linejoin:round;"/><path d="M14.61,92.02c-.06-.03-.12-.06-.17-.09-.02,0-.04-.02-.05-.03" style="fill:none; stroke:#023452; stroke-linecap:round; stroke-linejoin:round;"/><path d="M14.97,92.21s-.05-.03-.09-.05" style="fill:none; stroke:#023452; stroke-linecap:round; stroke-linejoin:round;"/><path d="M16.5,93.04c-.11-.06-.21-.12-.32-.17" style="fill:none; stroke:#023452; stroke-linecap:round; stroke-linejoin:round;"/><line x1="55" y1="113.82" x2="54.46" y2="113.53" style="fill:none; stroke:#023452; stroke-linecap:round; stroke-linejoin:round;"/><line x1="60.03" y1="116.53" x2="59.57" y2="116.29" style="fill:none; stroke:#023452; stroke-linecap:round; stroke-linejoin:round;"/><path d="M126.49,88.73v6.88l-58.99,31.84-58.98-31.84v-6.88c.4.22,2.25,1.22,2.36,1.28h0c.08.04.14.08.22.12.08.04.15.09.23.13.1.05.18.09.21.11h0c.07.04.14.08.2.11.13.07.29.16.42.23.06.04.11.06.15.08.02,0,.04.02.05.03h0c.06.04.14.08.2.11,0,0,.2.12.56.31.08.04.16.08.24.13.08.04.17.08.26.14.14.07.56.3.63.34.03.01.06.04.1.06.02,0,.03.01.05.03.05.03.11.06.17.09.08.04.17.09.27.15.03.01.06.03.09.05l.05.02c.06.04.12.06.18.1.12.07,52.16,28.16,52.31,28.24l58.99-31.84Z" style="fill:none; stroke:#023452; stroke-linecap:round; stroke-linejoin:round;"/><path d="M63.03,80.88s.04.02.06.04h.02" style="fill:none; stroke:#023452; stroke-linecap:round; stroke-linejoin:round;"/><line x1="62.11" y1="80.39" x2="62.2" y2="80.44" style="fill:none; stroke:#023452; stroke-linecap:round; stroke-linejoin:round;"/><path d="M73.97,79.95v29c0,2.98-6.74,4.51-10.68,2.39-1.22-.66-1.83-1.53-1.83-2.39v-28.91" style="fill:none; stroke:#023452; stroke-linecap:round; stroke-linejoin:round;"/><path d="M53.66,75.82v22.54c0,.87-.61,1.73-1.83,2.39-2.44,1.32-6.4,1.32-8.85,0-1.22-.65-1.83-1.52-1.83-2.39v-29.29" style="fill:none; stroke:#023452; stroke-linecap:round; stroke-linejoin:round;"/><path d="M29.49,62.78c.24.13.49.27.74.4" style="fill:none; stroke:#023452; stroke-linecap:round; stroke-linejoin:round;"/><path d="M25.48,60.62c.23.12.47.25.71.38" style="fill:none; stroke:#023452; stroke-linecap:round; stroke-linejoin:round;"/><path d="M22.32,58.92c.05.03.11.06.17.08" style="fill:none; stroke:#023452; stroke-linecap:round; stroke-linejoin:round;"/><path d="M34.19,65.33v22.91c0,.63-.32,1.19-.82,1.68-.05.05-.11.1-.16.15l-.23.17-.33.22c-.07.04-.14.08-.2.12-.14.08-.29.15-.44.22-.33.14-.68.29-1.05.39-.25.07-.5.13-.75.19-2.15.47-4.77.3-6.71-.75-1.22-.66-1.83-1.53-1.83-2.39v-29.67" style="fill:none; stroke:#023452; stroke-linecap:round; stroke-linejoin:round;"/><path d="M94.59,69v29.36c0,.87-.62,1.73-1.84,2.39-1.94,1.05-4.55,1.23-6.71.75-.19-.04-.37-.08-.54-.13-.45-.13-.87-.27-1.25-.44-.23-.11-.44-.22-.65-.34-.27-.16-.51-.35-.71-.54-.51-.49-.82-1.05-.82-1.68v-22.72" style="fill:none; stroke:#023452; stroke-linecap:round; stroke-linejoin:round;"/><path d="M113.85,58.78v29.46c0,.63-.3,1.19-.81,1.68-.05.05-.11.1-.17.15-.22.18-.47.35-.75.51-.14.08-.29.15-.44.22-.33.14-.67.28-1.05.39-.24.07-.49.13-.75.19-2.16.47-4.77.3-6.71-.75-1.22-.66-1.84-1.53-1.84-2.39v-22.82" style="fill:none; stroke:#023452; stroke-linecap:round; stroke-linejoin:round;"/><path d="M60.71,63.93c.08.12.17.23.24.35" style="fill:none; stroke:#023452; stroke-linecap:round; stroke-linejoin:round;"/><path d="M58.24,60.37c.15.21.29.42.44.63" style="fill:none; stroke:#023452; stroke-linecap:round; stroke-linejoin:round;"/><path d="M56.39,57.7c.2.27.38.54.56.8" style="fill:none; stroke:#023452; stroke-linecap:round; stroke-linejoin:round;"/><path d="M47.9,45.46c.16.22.31.44.46.65" style="fill:none; stroke:#023452; stroke-linecap:round; stroke-linejoin:round;"/><path d="M67.58,83.34s-.24-.13-.54-.29c-.03-.02-.06-.04-.1-.06-.9-.49-3.16-1.71-3.22-1.74,0,0-.02,0-.02-.01-.02-.01-.05-.02-.06-.04,0,0-.11-.05-.29-.15-.09-.05-.17-.09-.26-.14-.02-.01-.04-.02-.06-.04-.03-.01-.06-.03-.08-.04-.21-.11-1.09-.59-1.29-.69-.05-.03-.11-.06-.16-.09,0,0-.02-.01-.04-.01-.38-.21-.81-.43-1.26-.68-.1-.05-1.85-1.01-2.76-1.49,0,0-.02,0-.02,0-.79-.43-21.01-11.34-23.23-12.53h0c-.87-.48-12.5-6.75-12.51-6.76" style="fill:none; stroke:#023452; stroke-linecap:round; stroke-linejoin:round;"/><path d="M8.64,41.98s0,0,.02,0c1.59-.84,58.92-31.28,58.95-31.29L97.07,0" style="fill:none; stroke:#023452; stroke-linecap:round; stroke-linejoin:round;"/><path d="M21.68,58.57l-13.08-7.07v-9.51s0,0,.02,0" style="fill:none; stroke:#023452; stroke-linecap:round; stroke-linejoin:round;"/><polyline points="38.09 31.31 8.65 41.97 8.62 41.98" style="fill:none; stroke:#023452; stroke-linecap:round; stroke-linejoin:round;"/><path d="M39.67,30.47s-.05.03-.08.04" style="fill:none; stroke:#023452; stroke-linecap:round; stroke-linejoin:round;"/><path d="M39.91,30.34s-.04.02-.05.03c-.05.03-.09.05-.13.07" style="fill:none; stroke:#023452; stroke-linecap:round; stroke-linejoin:round;"/><path d="M47.18,26.48c-.16.08-.32.17-.48.25" style="fill:none; stroke:#023452; stroke-linecap:round; stroke-linejoin:round;"/><path d="M52.27,23.78c-.17.09-.35.19-.53.29" style="fill:none; stroke:#023452; stroke-linecap:round; stroke-linejoin:round;"/><line x1="69.14" y1="14.83" x2="68.82" y2="14.99" style="fill:none; stroke:#023452; stroke-linecap:round; stroke-linejoin:round;"/><path d="M81.13,8.46c-.26.14-.52.27-.78.42" style="fill:none; stroke:#023452; stroke-linecap:round; stroke-linejoin:round;"/><path d="M67.58,73.83l-29.5-42.53s1.37-.73,1.42-.75c.03-.02.07-.04.1-.05.02-.02.05-.03.08-.04.02-.01.03-.02.05-.03.05-.03.08-.05.13-.07.02,0,.03-.02.05-.03.12-.06,27.16-14.39,28.81-15.29.04-.02.07-.04.1-.06.11-.05.21-.11.32-.17.13-.07.28-.14.42-.22,1.98-1.06,11.32-6,11.57-6.15.05-.02.1-.05.15-.08,2.34-1.25,15.74-8.36,15.79-8.38l29.49,42.53" style="fill:none; stroke:#023452; stroke-linecap:round; stroke-linejoin:round;"/><polygon points="126.56 42.53 126.56 52.04 101.34 65.42 101.34 65.43 82.08 75.64 82.08 75.65 67.58 83.34 67.58 73.83 126.56 42.53" style="fill:none; stroke:#023452; stroke-linecap:round; stroke-linejoin:round;"/><path d="M59.75,71.69l-22.93-33.05s-18.68,6.77-22.92,8.3l45.85,24.75Z" style="fill:none; stroke:#023452; stroke-linecap:round; stroke-linejoin:round;"/><path d="M39.48,51.33c0-1.58-1.19-3.5-2.66-4.29-1.46-.79-2.64-.15-2.64,1.43s1.18,3.5,2.64,4.29c1.47.8,2.66.15,2.66-1.43Z" style="fill:none;"/></svg>