<?xml version="1.0" encoding="UTF-8"?><svg id="a" xmlns="http://www.w3.org/2000/svg" xmlns:xlink="http://www.w3.org/1999/xlink" viewBox="0 0 190 190"><defs><clipPath id="c"><rect x="0" y="0" width="16" height="19" style="fill:none;"/></clipPath><pattern id="b" x="0" y="0" width="16" height="19" patternTransform="translate(1408.32 -6829.4) scale(.4)" patternUnits="userSpaceOnUse" viewBox="0 0 16 19"><rect width="16" height="19" style="fill:none;"/><g style="clip-path:url(#c);"><polygon points="16 22.18 10.5 19 16 15.82 21.5 19 16 22.18" style="fill:#95989b;"/><polygon points="0 22.18 -5.5 19 0 15.82 5.5 19 0 22.18" style="fill:#95989b;"/><polygon points="8 12.68 2.5 9.5 8 6.32 13.5 9.5 8 12.68" style="fill:#9aaeba;"/><polygon points="16 3.18 10.5 0 16 -3.18 21.5 0 16 3.18" style="fill:#95989b;"/><polygon points="0 3.18 -5.5 0 0 -3.18 5.5 0 0 3.18" style="fill:#95989b;"/></g></pattern></defs><path d="M171.12,74.12c-9.33-7.29-17.41-.4-24.07,7.06-1.91,2.14-2.59,4.42-2.39,6.51-1.25.35-2.39,1.14-3.12,2.48-4.36,7.97-15.46,12.46-22.31,18.02-6.61,5.36-13.79,13.63-12.7,22.62l-15.62,8.11c-1.94,1.01-3.14,2.54-3.72,4.26-4.1.69-8.07,1.89-11.23,4.2-1.7,1.25-2.93,3.01-3.56,4.88-4.37.85-4.2,7.02-1.01,9.1,7.86,5.11,19.19,5.78,28.35,6.14,9.07.35,18.24-.25,27.15-1.99,8.18-1.6,16.13-5.04,21.26-11.83,5.08-6.73,6.15-15.11,6.81-23.29.42-5.23.79-10.46,1.19-15.69.23-3.04-.59-9.12,1.29-11.53-.36.46,2.17-.61,2.7-.77,1.32-.4,2.69-.63,4.02-.99,3.72-1.01,7.53-2.42,10.36-5.14,7.31-7.04,3.61-16.68-3.4-22.16ZM139.87,116.9c-.8-.04-1.63,0-2.49.13-3.31.52-6.49,1.58-9.58,2.91,2.4-2.27,5.07-4.25,7.7-6.23,1.48-1.11,3.07-2.26,4.66-3.46-.09,2.24-.14,4.47-.29,6.58,0,.02,0,.05,0,.07Z" style="fill:url(#b);"/><path d="M120.95,43.49l2.87-.07c2.08-.04,4.44.62,6.96,2.07,8.34,4.81,15.1,16.53,15.1,26.16,0,2.91-.61,5.28-1.7,7.07l-19.03,31.25h0s-23.98,39.38-23.98,39.38c2.96-5.19,4.63-12.02,4.63-20.25,0-28.57-20.06-63.31-44.81-77.6-7.19-4.15-13.99-6.12-20.02-6.12h0s79.97-1.88,79.97-1.88Z" style="fill:#fff;"/><path d="M132.99,122.52c-1.45,1.17-2.87,1.47-4.01,1.02-1.13-.45-1.97-1.63-2.25-3.45l-.15-.97,5.19-4.17c2.5-2.01,4.86-4.69,6.88-7.82,2.29-3.54,3.47-7.68,3.43-11.89l-.16-12.78.78-1.27,5.96-1.99.37,1.11.22,17.75c.05,3.97-.96,7.93-3.07,11.3-2.1,3.36-4.57,6.25-7.23,8.38l-5.96,4.78Z" style="fill:#355d75;"/><path d="M126.73,120.09c.28,1.82,1.12,3.01,2.25,3.45h0s-7.17-2.78-7.17-2.78c-.84-.33-1.51-1.05-1.92-2.13l5.26-8.65,1.57,10.11Z" style="fill:#023452;"/><path d="M130.79,45.5c-2.52-1.45-4.88-2.11-6.96-2.07l-2.87.07,12.74-11.29c3.28-2.91,8.36-3.05,14.07.25,9.9,5.71,17.91,19.6,17.91,31.02,0,6.6-2.67,10.92-6.83,12.32l-16.15,5.39,1.49-2.46c1.09-1.79,1.7-4.16,1.7-7.07,0-9.63-6.76-21.34-15.1-26.16Z" style="fill:#b3c2cb;"/><path d="M105.81,129.1c0,8.23-1.67,15.06-4.63,20.25l-.4.68c-7.46,12.27-22.48,14.92-39.78,4.93-24.74-14.29-44.8-49.03-44.8-77.6,0-20.27,10.09-31.98,24.78-31.98,6.02,0,12.83,1.97,20.02,6.12,24.75,14.29,44.81,49.02,44.81,77.6ZM63.13,145.88c19.81,12.8,34.92,4.07,33.75-19.48-.4-7.97-2.61-16.62-6.13-25.07-3.11-7.48-7.26-14.81-12.08-21.37-5.82-7.93-12.62-14.74-19.8-19.38-19.81-12.8-34.92-4.07-33.75,19.48,1.18,23.55,18.2,53.02,38,65.82Z" style="fill:#b3c2cb;"/><path d="M96.88,126.4c1.18,23.55-13.94,32.28-33.75,19.48S26.3,103.62,25.13,80.06c-1.18-23.55,13.94-32.28,33.75-19.48,7.18,4.64,13.98,11.46,19.8,19.38l-21.28,16.92c-3.19,2.54-4.13,7.09-2.04,10.73,2.1,3.63,6.51,5.1,10.3,3.6l25.09-9.89c3.52,8.45,5.73,17.1,6.13,25.07Z" style="fill:#355d75;"/><path d="M90.75,101.33l-25.09,9.89c-3.79,1.49-8.2.02-10.3-3.6-2.09-3.64-1.15-8.19,2.04-10.73l21.28-16.92c4.81,6.56,8.96,13.88,12.08,21.37Z" style="fill:#f47d20;"/><path d="M100.78,150.03c-7.46,12.27-22.48,14.92-39.78,4.93-24.74-14.29-44.8-49.03-44.8-77.6,0-20.27,10.09-31.98,24.78-31.98,6.02,0,12.83,1.97,20.02,6.12,24.75,14.29,44.81,49.02,44.81,77.6,0,8.23-1.67,15.06-4.63,20.25" style="fill:none; stroke:#023452; stroke-linecap:round; stroke-linejoin:round; stroke-width:3px;"/><path d="M90.75,101.33c3.52,8.45,5.73,17.1,6.13,25.07,1.18,23.55-13.94,32.28-33.75,19.48S26.3,103.62,25.13,80.06c-1.18-23.55,13.94-32.28,33.75-19.48,7.18,4.64,13.98,11.46,19.8,19.38,4.81,6.56,8.96,13.88,12.08,21.37Z" style="fill:none; stroke:#023452; stroke-linecap:round; stroke-linejoin:round; stroke-width:3px;"/><path d="M142.7,81.18l16.15-5.39c4.16-1.39,6.83-5.72,6.83-12.32,0-11.42-8.01-25.32-17.91-31.02-5.71-3.3-10.79-3.16-14.07-.25l-12.75,11.3" style="fill:none; stroke:#023452; stroke-linecap:round; stroke-linejoin:round; stroke-width:3px;"/><path d="M125.16,109.98l19.03-31.25c1.09-1.79,1.7-4.16,1.7-7.07,0-9.63-6.76-21.34-15.1-26.16-2.52-1.45-4.88-2.11-6.96-2.07l-83.48,1.95" style="fill:none; stroke:#023452; stroke-linecap:round; stroke-linejoin:round; stroke-width:3px;"/><line x1="100.78" y1="150.03" x2="125.16" y2="109.99" style="fill:none; stroke:#023452; stroke-linecap:round; stroke-linejoin:round; stroke-width:3px;"/><path d="M90.75,101.33l-25.09,9.89c-3.79,1.49-8.2.02-10.3-3.6-2.09-3.64-1.15-8.19,2.04-10.73l21.28-16.92" style="fill:none; stroke:#023452; stroke-linecap:round; stroke-linejoin:round; stroke-width:3px;"/><path d="M126.57,119.12l5.19-4.17c2.5-2.01,4.86-4.69,6.88-7.82,2.29-3.54,3.47-7.68,3.43-11.89l-.16-12.78" style="fill:none; stroke:#023452; stroke-linecap:round; stroke-linejoin:round; stroke-width:3px;"/><path d="M125.16,109.98h0s1.57,10.12,1.57,10.12c.28,1.82,1.12,3.01,2.25,3.45,1.13.45,2.56.14,4.01-1.02l5.96-4.78c2.66-2.13,5.13-5.02,7.23-8.38,2.11-3.38,3.13-7.33,3.07-11.3l-.22-17.75" style="fill:none; stroke:#023452; stroke-linecap:round; stroke-linejoin:round; stroke-width:3px;"/><path d="M119.9,118.63c.4,1.09,1.08,1.81,1.92,2.13l7.17,2.79" style="fill:none; stroke:#023452; stroke-linecap:round; stroke-linejoin:round; stroke-width:3px;"/></svg>